<svg xmlns="http://www.w3.org/2000/svg" width="790.386" height="576.628" viewBox="0 0 790.386 576.628">
  <g id="Grupo_8" data-name="Grupo 8" opacity="0.49">
    <path id="Gosma2" d="M988.558-374.295C1056.971-258.027,897-245.946,900.768-187.557c4.242,65.714,111.143,112.045,273.124,114.052,60.548.75,124.306-41.985,185-35.091,89.628,10.18,101.588,15.12,125.01,60.014,23.777,45.574,142.716,29.937,162.237,4.343,12.318-16.15,2.308-501.461,3.415-551.946H871.621c-17.67,0-11.148,29.955,22.909,44.921,38,16.7,124.039,10.857,155.3,69.486C1081.017-423.3,962.28-418.953,988.558-374.295Z" transform="translate(-862.098 596.186)" fill="#ffdb66"/>
    <path id="Gosma1" d="M1019.783-381.336c66.677,112.578-89.235,124.276-85.561,180.811,4.134,63.629,108.321,108.49,266.191,110.433,59.011.726,121.15-40.653,180.3-33.978,87.353,9.857,99.01,14.64,121.837,58.109,23.174,44.128,139.093,28.987,158.12,4.205,11.457-14.923,3.095-443.558,3.245-525.177.009-5.11-.069-8.72.022-9.253H905.814c-17.222,0-10.865,29,22.327,43.5,37.037,16.169,120.89,10.512,151.362,67.28C1109.894-428.791,994.172-424.578,1019.783-381.336Z" transform="translate(-876.337 596.186)" fill="#ffe799"/>
  </g>
</svg>
