<svg xmlns="http://www.w3.org/2000/svg" width="93.36" height="47.332" viewBox="0 0 93.36 47.332">
  <g id="SVG_logo" transform="translate(-515 235)">
    <g id="Camada_2" data-name="Camada 2" transform="translate(515 -235)">
      <g id="Camada_1" data-name="Camada 1" transform="translate(0 0)">
        <path id="Caminho_153" data-name="Caminho 153" d="M30.014,273.332a22.654,22.654,0,0,1-13.278,4.053h0a22.809,22.809,0,0,1-9.178-1.864A24.426,24.426,0,0,1,0,270.43l6.694-6.694A13.7,13.7,0,0,0,16.736,267.9h0a13.662,13.662,0,0,0,10.022-4.159,13.93,13.93,0,0,0,3.256-4.926Z" transform="translate(0 -230.054)"/>
        <path id="Caminho_154" data-name="Caminho 154" d="M278.17,0V3.6a26.583,26.583,0,0,1,3.172,2.731,24.026,24.026,0,0,1,6.307,10.553V9.46h36.368a6.809,6.809,0,0,1,5.021,2.094,6.854,6.854,0,0,1,2.084,5.011h0a7.121,7.121,0,0,1-7.105,7.108H316.94V16.566h0v-6.2h-9.477v6.2h0V47.331h9.477V33.121h7.075a16,16,0,0,0,11.716-4.86,15.947,15.947,0,0,0,4.883-11.694h0a15.931,15.931,0,0,0-4.88-11.686A16.006,16.006,0,0,0,324.018,0Z" transform="translate(-247.253 0)"/>
        <path id="Caminho_155" data-name="Caminho 155" d="M16.736,0A22.76,22.76,0,0,1,33.454,6.962a22.839,22.839,0,0,1,6.505,11.976H40.4v-.016H59.307v9.465H40.4v9.46H59.307v9.48H30.917V23.67a13.725,13.725,0,0,0-4.159-10.031A13.6,13.6,0,0,0,16.736,9.46h0A13.8,13.8,0,0,0,6.694,13.629L0,6.932A24.722,24.722,0,0,1,7.558,1.86,22.809,22.809,0,0,1,16.736,0Z" transform="translate(0 0.004)"/>
      </g>
    </g>
  </g>
</svg>
