<svg id="SVG_icon" xmlns="http://www.w3.org/2000/svg" xmlns:xlink="http://www.w3.org/1999/xlink" width="611.22" height="432.827" viewBox="0 0 611.22 432.827">
  <defs>
    <linearGradient id="linear-gradient" y1="0.501" x2="1" y2="0.501" gradientUnits="objectBoundingBox">
      <stop offset="0" stop-color="#c2c7e3"/>
      <stop offset="0.1" stop-color="#c9cee6"/>
      <stop offset="0.69" stop-color="#f0f1f8"/>
      <stop offset="1" stop-color="#fff"/>
    </linearGradient>
    <radialGradient id="radial-gradient" cx="0.235" cy="0.309" r="0.814" gradientUnits="objectBoundingBox">
      <stop offset="0" stop-color="#807eef"/>
      <stop offset="1" stop-color="#34318b"/>
    </radialGradient>
    <linearGradient id="linear-gradient-2" y1="0.5" x2="1" y2="0.5" gradientUnits="objectBoundingBox">
      <stop offset="0" stop-color="#cdd3ef"/>
      <stop offset="1" stop-color="#fff"/>
    </linearGradient>
    <linearGradient id="linear-gradient-3" y1="0.5" x2="1" y2="0.5" gradientUnits="objectBoundingBox">
      <stop offset="0" stop-color="#cfd4ee"/>
      <stop offset="0.98" stop-color="#fff"/>
    </linearGradient>
    <linearGradient id="linear-gradient-4" y1="0.5" x2="1" y2="0.5" gradientUnits="objectBoundingBox">
      <stop offset="0" stop-color="#c4c9e5"/>
      <stop offset="0.1" stop-color="#ccd0e9"/>
      <stop offset="0.61" stop-color="#f1f2f9"/>
      <stop offset="0.88" stop-color="#fff"/>
    </linearGradient>
    <linearGradient id="linear-gradient-5" y1="0.5" x2="1" y2="0.5" gradientUnits="objectBoundingBox">
      <stop offset="0.4" stop-color="#cdd3ef"/>
      <stop offset="0.58" stop-color="#d8dcf2"/>
      <stop offset="0.9" stop-color="#f4f5fb"/>
      <stop offset="1" stop-color="#fff"/>
    </linearGradient>
    <linearGradient id="linear-gradient-6" y1="0.5" x2="1" y2="0.5" gradientUnits="objectBoundingBox">
      <stop offset="0" stop-color="#ccd1f6"/>
      <stop offset="1" stop-color="#b9bee4"/>
    </linearGradient>
    <linearGradient id="linear-gradient-7" y1="0.5" x2="1" y2="0.5" gradientUnits="objectBoundingBox">
      <stop offset="0" stop-color="#fff"/>
      <stop offset="0.1" stop-color="#fdfdfe"/>
      <stop offset="0.92" stop-color="#f1f1f6"/>
    </linearGradient>
    <linearGradient id="linear-gradient-8" x1="-2.246" y1="1.927" x2="-1.663" y2="1.053" gradientUnits="objectBoundingBox">
      <stop offset="0" stop-color="#c4c9e5"/>
      <stop offset="0.51" stop-color="#e6e9f4"/>
      <stop offset="0.94" stop-color="#fff"/>
    </linearGradient>
    <radialGradient id="radial-gradient-2" cx="0.192" cy="0.308" r="0.881" gradientTransform="translate(0)" gradientUnits="objectBoundingBox">
      <stop offset="0" stop-color="#807dfb"/>
      <stop offset="0.4" stop-color="#5652cc"/>
      <stop offset="0.49" stop-color="#514cc3"/>
      <stop offset="0.65" stop-color="#423daa"/>
      <stop offset="0.84" stop-color="#2a2481"/>
      <stop offset="0.92" stop-color="#20196f"/>
      <stop offset="0.93" stop-color="#261f73"/>
      <stop offset="0.94" stop-color="#363080"/>
      <stop offset="0.96" stop-color="#504d94"/>
      <stop offset="0.97" stop-color="#7574b0"/>
      <stop offset="0.99" stop-color="#a3a6d4"/>
      <stop offset="1" stop-color="#bbc0e6"/>
    </radialGradient>
    <radialGradient id="radial-gradient-3" cx="0.191" cy="0.291" r="0.888" gradientTransform="translate(0)" gradientUnits="objectBoundingBox">
      <stop offset="0" stop-color="#362e94"/>
      <stop offset="0.34" stop-color="#251f65"/>
      <stop offset="1"/>
    </radialGradient>
    <linearGradient id="linear-gradient-9" x1="11.803" y1="0.189" x2="12.303" y2="0.835" gradientUnits="objectBoundingBox">
      <stop offset="0" stop-color="#fd806a"/>
      <stop offset="0.34" stop-color="#fd776c"/>
      <stop offset="0.9" stop-color="#fd5f71"/>
      <stop offset="1" stop-color="#fd5a72"/>
    </linearGradient>
    <linearGradient id="linear-gradient-10" x1="-1.922" y1="-0.024" x2="-1.203" y2="0.895" xlink:href="#linear-gradient-9"/>
    <linearGradient id="linear-gradient-11" y1="0.5" x2="1" y2="0.5" gradientUnits="objectBoundingBox">
      <stop offset="0" stop-color="#c2c8e7"/>
      <stop offset="0.26" stop-color="#d5daef"/>
      <stop offset="0.73" stop-color="#f4f5fb"/>
      <stop offset="1" stop-color="#fff"/>
    </linearGradient>
    <linearGradient id="linear-gradient-12" x1="20.896" y1="0.189" x2="21.397" y2="0.836" xlink:href="#linear-gradient-9"/>
    <linearGradient id="linear-gradient-13" x1="-1.922" y1="-0.024" x2="-1.203" y2="0.896" xlink:href="#linear-gradient-9"/>
    <linearGradient id="linear-gradient-14" x1="0" y1="0.5" x2="1" y2="0.5" xlink:href="#linear-gradient-11"/>
    <linearGradient id="linear-gradient-15" x1="42.615" y1="0.189" x2="43.115" y2="0.835" xlink:href="#linear-gradient-9"/>
    <linearGradient id="linear-gradient-16" x1="-1.922" y1="-0.024" x2="-1.203" y2="0.896" xlink:href="#linear-gradient-9"/>
    <linearGradient id="linear-gradient-17" x1="0" y1="0.5" x2="1" y2="0.5" xlink:href="#linear-gradient-11"/>
    <linearGradient id="linear-gradient-18" x1="6.891" y1="0.5" x2="7.891" y2="0.5" gradientUnits="objectBoundingBox">
      <stop offset="0" stop-color="#c4c9e5"/>
      <stop offset="0.09" stop-color="#ced2e9"/>
      <stop offset="0.41" stop-color="#e9ebf5"/>
      <stop offset="0.69" stop-color="#f9fafc"/>
      <stop offset="0.9" stop-color="#fff"/>
    </linearGradient>
    <linearGradient id="linear-gradient-19" x1="6.201" y1="0.5" x2="7.201" y2="0.5" xlink:href="#linear-gradient-18"/>
    <linearGradient id="linear-gradient-20" x1="26.857" y1="0.5" x2="27.857" y2="0.5" gradientUnits="objectBoundingBox">
      <stop offset="0" stop-color="#5655c4"/>
      <stop offset="0.07" stop-color="#5251be"/>
      <stop offset="0.43" stop-color="#4240a3"/>
      <stop offset="0.75" stop-color="#383593"/>
      <stop offset="1" stop-color="#34318d"/>
    </linearGradient>
    <linearGradient id="linear-gradient-21" x1="26.857" y1="0.5" x2="27.857" y2="0.5" xlink:href="#linear-gradient-20"/>
    <linearGradient id="linear-gradient-22" x1="14.564" y1="0.475" x2="15.617" y2="0.513" gradientUnits="objectBoundingBox">
      <stop offset="0" stop-color="#20196f"/>
      <stop offset="0.3" stop-color="#28217d"/>
      <stop offset="0.85" stop-color="#3c38a2"/>
      <stop offset="1" stop-color="#423ead"/>
    </linearGradient>
    <linearGradient id="linear-gradient-23" x1="8.335" y1="0.5" x2="7.335" y2="0.5" gradientUnits="objectBoundingBox">
      <stop offset="0" stop-color="#fcba06"/>
      <stop offset="0.05" stop-color="#fab605"/>
      <stop offset="0.37" stop-color="#eca202"/>
      <stop offset="0.69" stop-color="#e49501"/>
      <stop offset="1" stop-color="#e19100"/>
    </linearGradient>
    <linearGradient id="linear-gradient-24" x1="14.154" y1="0.5" x2="15.154" y2="0.5" gradientUnits="objectBoundingBox">
      <stop offset="0" stop-color="#ffd03e"/>
      <stop offset="0.32" stop-color="#feca30"/>
      <stop offset="0.93" stop-color="#fcbc0b"/>
      <stop offset="1" stop-color="#fcba06"/>
    </linearGradient>
    <linearGradient id="linear-gradient-25" x1="94.831" y1="1" x2="94.831" gradientUnits="objectBoundingBox">
      <stop offset="0" stop-color="#f4f4f9"/>
      <stop offset="0.56" stop-color="#e1e5f5"/>
      <stop offset="1" stop-color="#d8def3"/>
    </linearGradient>
    <linearGradient id="linear-gradient-26" x1="60.532" y1="0.5" x2="61.532" y2="0.5" xlink:href="#linear-gradient-24"/>
    <linearGradient id="linear-gradient-27" y1="0.5" x2="1" y2="0.5" gradientUnits="objectBoundingBox">
      <stop offset="0" stop-color="#c2c7e2"/>
      <stop offset="0.2" stop-color="#d7daec"/>
      <stop offset="0.49" stop-color="#edeef6"/>
      <stop offset="0.76" stop-color="#fafbfd"/>
      <stop offset="1" stop-color="#fff"/>
    </linearGradient>
    <linearGradient id="linear-gradient-28" y1="0.501" x2="1" y2="0.501" gradientUnits="objectBoundingBox">
      <stop offset="0" stop-color="#c2c6e0"/>
      <stop offset="0.16" stop-color="#d7daeb"/>
      <stop offset="0.41" stop-color="#f4f5f9"/>
      <stop offset="0.56" stop-color="#fff"/>
    </linearGradient>
    <linearGradient id="linear-gradient-29" x1="0.021" y1="0.81" x2="0.812" y2="0.389" gradientUnits="objectBoundingBox">
      <stop offset="0" stop-color="#6b67e7"/>
      <stop offset="0.38" stop-color="#4b46b4"/>
      <stop offset="0.79" stop-color="#2c2682"/>
      <stop offset="1" stop-color="#20196f"/>
    </linearGradient>
    <linearGradient id="linear-gradient-30" x1="0.021" y1="0.81" x2="0.812" y2="0.389" gradientUnits="objectBoundingBox">
      <stop offset="0" stop-color="#6b67e7"/>
      <stop offset="0.68" stop-color="#363092"/>
      <stop offset="1" stop-color="#20196f"/>
    </linearGradient>
    <linearGradient id="linear-gradient-31" y1="0.5" x2="1" y2="0.5" gradientUnits="objectBoundingBox">
      <stop offset="0" stop-color="#807df9"/>
      <stop offset="0.35" stop-color="#6561d4"/>
      <stop offset="1" stop-color="#362e92"/>
    </linearGradient>
    <linearGradient id="linear-gradient-33" x1="0.021" y1="0.811" x2="0.811" y2="0.389" xlink:href="#linear-gradient-29"/>
    <linearGradient id="linear-gradient-34" x1="0.021" y1="0.81" x2="0.812" y2="0.389" xlink:href="#linear-gradient-30"/>
    <linearGradient id="linear-gradient-35" x1="0" y1="0.5" x2="1" y2="0.5" xlink:href="#linear-gradient-31"/>
    <linearGradient id="linear-gradient-36" x1="0" y1="0.5" y2="0.5" xlink:href="#linear-gradient-2"/>
    <linearGradient id="linear-gradient-37" y1="0.5" x2="1" y2="0.5" gradientUnits="objectBoundingBox">
      <stop offset="0" stop-color="#cdd3ef"/>
      <stop offset="0.3" stop-color="#e1e4f5"/>
      <stop offset="0.73" stop-color="#f7f8fc"/>
      <stop offset="1" stop-color="#fff"/>
    </linearGradient>
    <linearGradient id="linear-gradient-38" x1="0" y1="0.5" x2="1" y2="0.5" xlink:href="#linear-gradient-37"/>
    <linearGradient id="linear-gradient-39" y1="0.5" x2="1" y2="0.5" gradientUnits="objectBoundingBox">
      <stop offset="0" stop-color="#c0c5e1"/>
      <stop offset="0.3" stop-color="#d7daec"/>
      <stop offset="0.74" stop-color="#f4f5fa"/>
      <stop offset="1" stop-color="#fff"/>
    </linearGradient>
  </defs>
  <g id="Camada_2" data-name="Camada 2">
    <g id="Objects">
      <g id="Cloud">
        <rect id="Retângulo_3" data-name="Retângulo 3" width="50.237" height="3.387" transform="translate(148.884 204.636)" fill="url(#linear-gradient)"/>
        <path id="Caminho_1" data-name="Caminho 1" d="M277.94,335.57l2.46,1.417V366.81l-2.46-1.422Z" transform="translate(-131.516 -158.787)" fill="#34318b"/>
        <path id="Caminho_2" data-name="Caminho 2" d="M285.065,335.57l-2.455,1.417V366.81l2.46-1.422Z" transform="translate(-133.726 -158.787)" fill="#1e1c6b"/>
        <path id="Caminho_3" data-name="Caminho 3" d="M238,288.1A23.507,23.507,0,1,1,261.507,311.6,23.507,23.507,0,0,1,238,288.1Z" transform="translate(-112.617 -125.201)" fill="url(#radial-gradient)"/>
        <rect id="Retângulo_4" data-name="Retângulo 4" width="146.756" height="49.605" transform="translate(205.522 196.607)" fill="url(#linear-gradient-2)"/>
        <path id="Caminho_4" data-name="Caminho 4" d="M390.51,366.561V277.745l41-23.665v88.811Z" transform="translate(-184.782 -120.228)" fill="#b9bee4"/>
        <path id="Caminho_5" data-name="Caminho 5" d="M312.7,342.891V254.08l40.992,23.665v88.816Z" transform="translate(-147.964 -120.228)" fill="#ccd1f6"/>
        <path id="Caminho_6" data-name="Caminho 6" d="M353.692,209.15,312.7,232.82l40.992,23.665,41-23.665Zm-32.573,23.67,32.573-18.807,32.573,18.807-32.573,18.8Z" transform="translate(-147.964 -98.968)" fill="#f4f4f9"/>
        <path id="Caminho_7" data-name="Caminho 7" d="M373.324,99.14,354.19,110.2l19.134,11.063L392.458,110.2Z" transform="translate(-167.596 -46.913)" fill="#f4f4f9"/>
        <path id="Caminho_8" data-name="Caminho 8" d="M328.685,214.957,328.68,171.4l32.573,18.807v43.552Z" transform="translate(-155.525 -81.105)" fill="#ccd1f6"/>
        <path id="Caminho_9" data-name="Caminho 9" d="M328.68,161.3l13.439-11.242,19.134,11.047v19Z" transform="translate(-155.525 -71.007)" fill="#dfe4f4"/>
        <path id="Caminho_10" data-name="Caminho 10" d="M373.324,146.936,354.19,135.888V120.11l19.134,11.047Z" transform="translate(-167.596 -56.836)" fill="#ccd1f6"/>
        <path id="Caminho_11" data-name="Caminho 11" d="M390.51,233.759V190.207L423.083,171.4v43.557Z" transform="translate(-184.782 -81.105)" fill="#b9bee4"/>
        <path id="Caminho_12" data-name="Caminho 12" d="M390.51,180.11v-19l19.134-11.047L423.083,161.3Z" transform="translate(-184.782 -71.007)" fill="#c2c8e7"/>
        <path id="Caminho_13" data-name="Caminho 13" d="M409.644,135.888,390.51,146.936V131.157l19.134-11.047Z" transform="translate(-184.782 -56.836)" fill="#b9bee4"/>
        <path id="Caminho_14" data-name="Caminho 14" d="M395.183,112.96H390.51l6.575,3.8-6.575,3.793h4.673l6.575-3.793Z" transform="translate(-184.782 -53.452)" fill="url(#linear-gradient-3)"/>
        <path id="Caminho_15" data-name="Caminho 15" d="M397.143,114.88,390.51,118.7v2.755l6.633-3.825Z" transform="translate(-184.782 -54.361)" fill="#b9bee4"/>
        <path id="Caminho_16" data-name="Caminho 16" d="M377.93,117.635l6.627,3.825V118.7l-6.627-3.825Z" transform="translate(-178.83 -54.361)" fill="#ccd1f6"/>
        <path id="Caminho_17" data-name="Caminho 17" d="M384.557,107.61l-6.627,3.83,6.627,3.825,6.633-3.825Z" transform="translate(-178.83 -50.921)" fill="#fff"/>
        <path id="Caminho_18" data-name="Caminho 18" d="M390.51,268.51h8.424l32.573-18.8-8.424-4.868v4.868Z" transform="translate(-184.782 -115.855)" fill="#d8def3"/>
        <g id="Grupo_1" data-name="Grupo 1" transform="translate(170.679 143.477)">
          <path id="Caminho_19" data-name="Caminho 19" d="M373.8,383.731V301.11l2.286,1.317v82.621Z" transform="translate(-347.554 -285.959)" fill="#d8def3"/>
          <path id="Caminho_20" data-name="Caminho 20" d="M361.35,376.541V293.92l2.286,1.317-.005,82.621Z" transform="translate(-341.663 -282.557)" fill="#d8def3"/>
          <path id="Caminho_21" data-name="Caminho 21" d="M348.89,369.351V286.73l2.286,1.317v82.621Z" transform="translate(-335.767 -279.154)" fill="#d8def3"/>
          <path id="Caminho_22" data-name="Caminho 22" d="M336.44,362.161V279.54l2.286,1.317-.005,82.621Z" transform="translate(-329.876 -275.752)" fill="#d8def3"/>
          <path id="Caminho_23" data-name="Caminho 23" d="M323.98,354.971V272.35l2.286,1.317v82.621Z" transform="translate(-323.98 -272.35)" fill="#d8def3"/>
        </g>
        <g id="Grupo_2" data-name="Grupo 2" transform="translate(178.439 99.904)">
          <path id="Caminho_24" data-name="Caminho 24" d="M376.08,248.208v-37l2.286,1.322v36.993Z" transform="translate(-356.393 -199.847)" fill="#d8def3"/>
          <path id="Caminho_25" data-name="Caminho 25" d="M363.62,241.018l.005-37,2.281,1.317v37Z" transform="translate(-350.497 -196.444)" fill="#d8def3"/>
          <path id="Caminho_26" data-name="Caminho 26" d="M351.17,233.828v-37l2.286,1.317-.005,37Z" transform="translate(-344.606 -193.042)" fill="#d8def3"/>
          <path id="Caminho_27" data-name="Caminho 27" d="M338.71,226.638v-37L341,190.957v37Z" transform="translate(-338.71 -189.64)" fill="#d8def3"/>
        </g>
        <g id="Grupo_3" data-name="Grupo 3" transform="translate(211.049 99.904)">
          <path id="Caminho_28" data-name="Caminho 28" d="M402.9,248.208l-.005-37-2.281,1.322v36.993Z" transform="translate(-400.61 -199.847)" fill="#d8def3"/>
          <path id="Caminho_29" data-name="Caminho 29" d="M415.346,241.018v-37l-2.286,1.317v37Z" transform="translate(-406.501 -196.444)" fill="#d8def3"/>
          <path id="Caminho_30" data-name="Caminho 30" d="M427.806,233.828l-.005-37-2.281,1.317v37Z" transform="translate(-412.397 -193.042)" fill="#d8def3"/>
          <path id="Caminho_31" data-name="Caminho 31" d="M440.256,226.638v-37l-2.286,1.317v37Z" transform="translate(-418.288 -189.64)" fill="#d8def3"/>
        </g>
        <g id="Grupo_4" data-name="Grupo 4" transform="translate(212.244 143.477)">
          <path id="Caminho_32" data-name="Caminho 32" d="M405.166,383.731V301.11l-2.286,1.317v82.621Z" transform="translate(-402.88 -285.959)" fill="#d8def3"/>
          <path id="Caminho_33" data-name="Caminho 33" d="M417.626,376.541V293.92l-2.286,1.317v82.621Z" transform="translate(-408.776 -282.557)" fill="#d8def3"/>
          <path id="Caminho_34" data-name="Caminho 34" d="M430.076,369.351V286.73l-2.286,1.317.005,82.621Z" transform="translate(-414.667 -279.154)" fill="#d8def3"/>
          <path id="Caminho_35" data-name="Caminho 35" d="M442.536,362.161l-.005-82.621-2.281,1.317v82.621Z" transform="translate(-420.563 -275.752)" fill="#d8def3"/>
          <path id="Caminho_36" data-name="Caminho 36" d="M454.986,354.971V272.35l-2.286,1.317v82.621Z" transform="translate(-426.454 -272.35)" fill="#d8def3"/>
        </g>
        <path id="Caminho_37" data-name="Caminho 37" d="M369.3,140.28l3.214,1.86v3.709l-3.214-1.854Z" transform="translate(-174.746 -66.38)" fill="#d8def3"/>
        <path id="Caminho_38" data-name="Caminho 38" d="M408.834,140.28l-3.214,1.86v3.709l3.214-1.854Z" transform="translate(-191.932 -66.38)" fill="#d8def3"/>
        <path id="Caminho_39" data-name="Caminho 39" d="M1020.684,264.7H924.34l32.373,18.692L924.34,302.083h96.344V264.7Z" transform="translate(-437.381 -125.253)" fill="url(#linear-gradient-4)"/>
        <path id="Caminho_40" data-name="Caminho 40" d="M927.636,177.8,895.263,159.11,862.89,177.8l32.373,18.692Z" transform="translate(-408.304 -75.29)" fill="#f6f6fb"/>
        <path id="Caminho_41" data-name="Caminho 41" d="M926.979,182.825,901.107,167.89,875.24,182.825l25.872,14.935Z" transform="translate(-414.148 -79.444)" fill="#dae0f5"/>
        <path id="Caminho_42" data-name="Caminho 42" d="M956.713,250.217,924.34,268.908V213.282l32.373-18.692Z" transform="translate(-437.381 -92.078)" fill="#bbc0e6"/>
        <g id="Grupo_5" data-name="Grupo 5" transform="translate(501.499 117.052)">
          <path id="Caminho_43" data-name="Caminho 43" d="M955.238,225.662l-3.3,1.9v-3.472l3.3-1.9Z" transform="translate(-951.94 -222.19)" fill="#dae0f5"/>
          <path id="Caminho_44" data-name="Caminho 44" d="M955.238,240.622l-3.3,1.9v-3.472l3.3-1.9Z" transform="translate(-951.94 -229.269)" fill="#dae0f5"/>
          <path id="Caminho_45" data-name="Caminho 45" d="M955.238,255.582l-3.3,1.9v-3.472l3.3-1.9Z" transform="translate(-951.94 -236.348)" fill="#dae0f5"/>
          <path id="Caminho_46" data-name="Caminho 46" d="M955.238,270.542l-3.3,1.9v-3.466l3.3-1.907Z" transform="translate(-951.94 -243.426)" fill="#dae0f5"/>
          <path id="Caminho_47" data-name="Caminho 47" d="M955.238,285.506l-3.3,1.9v-3.466l3.3-1.9Z" transform="translate(-951.94 -250.51)" fill="#dae0f5"/>
          <path id="Caminho_48" data-name="Caminho 48" d="M955.238,300.466l-3.3,1.9V298.9l3.3-1.9Z" transform="translate(-951.94 -257.589)" fill="#dae0f5"/>
        </g>
        <path id="Caminho_49" data-name="Caminho 49" d="M862.89,250.217l32.373,18.692V213.282L862.89,194.59Z" transform="translate(-408.304 -92.078)" fill="#ced3f8"/>
        <g id="Grupo_6" data-name="Grupo 6" transform="translate(469.126 117.052)">
          <path id="Caminho_50" data-name="Caminho 50" d="M890.49,225.662l3.3,1.9v-3.472l-3.3-1.9Z" transform="translate(-890.49 -222.19)" fill="#dae0f5"/>
          <path id="Caminho_51" data-name="Caminho 51" d="M890.49,240.622l3.3,1.9v-3.472l-3.3-1.9Z" transform="translate(-890.49 -229.269)" fill="#dae0f5"/>
          <path id="Caminho_52" data-name="Caminho 52" d="M890.49,255.582l3.3,1.9v-3.472l-3.3-1.9Z" transform="translate(-890.49 -236.348)" fill="#dae0f5"/>
          <path id="Caminho_53" data-name="Caminho 53" d="M890.49,270.542l3.3,1.9v-3.466l-3.3-1.907Z" transform="translate(-890.49 -243.426)" fill="#dae0f5"/>
          <path id="Caminho_54" data-name="Caminho 54" d="M890.49,285.506l3.3,1.9v-3.466l-3.3-1.9Z" transform="translate(-890.49 -250.51)" fill="#dae0f5"/>
          <path id="Caminho_55" data-name="Caminho 55" d="M890.49,300.466l3.3,1.9V298.9l-3.3-1.9Z" transform="translate(-890.49 -257.589)" fill="#dae0f5"/>
        </g>
        <path id="Caminho_56" data-name="Caminho 56" d="M899.758,166.329l-25.867,14.935-1.5-.869,27.368-15.8Z" transform="translate(-412.799 -77.883)" fill="#bbc0e6"/>
        <path id="Caminho_57" data-name="Caminho 57" d="M924.34,166.329l25.872,14.935,1.5-.869-27.373-15.8Z" transform="translate(-437.381 -77.883)" fill="#ced3f8"/>
        <path id="Caminho_58" data-name="Caminho 58" d="M16,640.939c0-5.795,3.846-11.637,11.532-16.078,15.383-8.877,40.317-8.877,55.7,0,7.686,4.441,11.532,10.262,11.532,16.078s-3.841,11.637-11.532,16.078c-15.378,8.877-40.312,8.877-55.7,0C19.835,652.576,16,646.755,16,640.939Z" transform="translate(-7.571 -292.524)" fill="url(#linear-gradient-5)"/>
        <path id="Caminho_59" data-name="Caminho 59" d="M67.227,661.173c-15.378,8.882-40.312,8.882-55.69,0C3.846,656.732,0,650.916,0,645.1v8.956c0,5.795,3.846,11.637,11.537,16.073,15.378,8.882,40.312,8.882,55.69,0,7.692-4.436,11.532-10.257,11.532-16.073V645.1C78.759,650.916,74.919,656.737,67.227,661.173Z" transform="translate(0 -305.251)" fill="url(#linear-gradient-6)"/>
        <path id="Caminho_60" data-name="Caminho 60" d="M0,624.675c0-5.821,3.846-11.643,11.537-16.078,15.378-8.882,40.312-8.882,55.69,0,7.692,4.441,11.532,10.257,11.532,16.078s-3.84,11.638-11.532,16.073c-15.378,8.882-40.312,8.882-55.69,0C3.846,636.307,0,630.491,0,624.675Z" transform="translate(0 -284.826)" fill="#f4f4f9"/>
        <path id="Caminho_61" data-name="Caminho 61" d="M76.129,644.952l-5.453-3.161c4.589-3.1,4.589-7.686,0-10.784l5.453-3.161a.485.485,0,0,0,0-.917,1.738,1.738,0,0,0-1.58,0L69.09,630.09a23.057,23.057,0,0,0-18.676,0l-5.458-3.161a1.754,1.754,0,0,0-1.58,0,.485.485,0,0,0,0,.917l5.458,3.161c-4.589,3.1-4.589,7.686,0,10.784l-5.458,3.161a.485.485,0,0,0,0,.917,1.755,1.755,0,0,0,1.58,0l5.458-3.161a23.056,23.056,0,0,0,18.676,0l5.458,3.161a1.738,1.738,0,0,0,1.58,0,.485.485,0,0,0,0-.917Zm-7.038-4.067-7.755-4.473,7.755-4.478c3.725,2.587,3.725,6.364,0,8.951Zm-1.58-9.867L59.755,635.5l-7.776-4.478a19.5,19.5,0,0,1,15.525,0Zm-17.111.917,7.749,4.478L50.4,640.885C46.711,638.3,46.711,634.521,50.4,631.934Zm1.58,9.867,7.755-4.478,7.755,4.478a19.458,19.458,0,0,1-15.51,0Z" transform="translate(-20.37 -296.563)" fill="#ced3f8"/>
        <path id="Caminho_62" data-name="Caminho 62" d="M115.983,557.311a4.689,4.689,0,0,1-1.054-.116c-30.766-7.128-64.7-8.429-103.741-4.057a4.575,4.575,0,1,1-1.027-9.093c40.091-4.52,75.04-3.161,106.833,4.215a4.578,4.578,0,0,1-1.027,9.035Z" transform="translate(-2.886 -256.205)" fill="url(#linear-gradient-7)"/>
        <path id="Caminho_63" data-name="Caminho 63" d="M451.426,530.437h-.4c-48.7-.063-94.738-11.021-129.6-30.866l-4.046-2.3c-36.382-20.714-67.8-38.605-107.813-47.872a4.578,4.578,0,1,1,2.065-8.92c41.313,9.573,73.275,27.769,110.279,48.837l4.046,2.3c69.435,39.511,181.578,39.511,249.98,0,32.515-18.776,50.427-43.462,50.427-69.54s-17.912-50.743-50.427-69.514c-33.337-19.192-77.722-29.781-125.009-29.781a4.578,4.578,0,0,1,0-9.151c48.868,0,94.875,11.026,129.555,31.045,35.471,20.477,55.005,47.983,55.005,77.442s-19.534,56.96-55.005,77.442C546,519.474,500.167,530.437,451.426,530.437Z" transform="translate(-97.489 -148.406)" fill="#f1f1f6"/>
        <ellipse id="Elipse_1" data-name="Elipse 1" cx="141.256" cy="81.551" rx="141.256" ry="81.551" transform="translate(282.037 178.395)" fill="url(#linear-gradient-8)"/>
        <path id="Caminho_64" data-name="Caminho 64" d="M448.77,261.173A117.03,117.03,0,1,1,565.8,378.2,117.025,117.025,0,0,1,448.77,261.173Z" transform="translate(-212.35 -68.206)" fill="url(#radial-gradient-2)"/>
        <path id="Caminho_65" data-name="Caminho 65" d="M453.264,293.286q.738,2.576,1.58,5.1a39.569,39.569,0,0,1-1.2-5.163Zm229.566-32.1A117.914,117.914,0,0,0,681.945,247a81.044,81.044,0,0,0-2.924-11.379,40.239,40.239,0,0,0-.205-4.847q-.69-2.581-1.5-5.126l-.4.1a37.922,37.922,0,0,1,1.054,6.875,88.146,88.146,0,0,0-13.487-23.5,35.74,35.74,0,0,0-4.288-17.1q-1.691-2.313-3.5-4.536l-.3.211a36.618,36.618,0,0,1,7.044,20.077,104.307,104.307,0,0,0-14.64-14.519,114.99,114.99,0,0,0-13.861-9.662c0-.348.047-.69.047-1.054,0-8.376-4.394-16.331-12.5-23.048.98.527,1.944,1.054,2.882,1.654l.332-.527a116.785,116.785,0,0,0-15.157-7.581q1.844.922,3.567,1.918c.406.237.785.479,1.175.716-13.871-3.835-30.814-.732-48.994,9.2v-20.7h-1.027v20.683c-11.305-6.417-22.263-10.062-32.568-10.81a47.472,47.472,0,0,0-16.263,1.522c.337-.205.664-.416,1.017-.616,1.159-.669,2.365-1.312,3.6-1.933a116.354,116.354,0,0,0-15.194,7.634l.327.527q1.422-.9,2.908-1.675c-8.1,6.706-12.491,14.672-12.491,23.038a8.948,8.948,0,0,0,.042,1.054,114.563,114.563,0,0,0-13.86,9.683,104.509,104.509,0,0,0-14.635,14.514,36.511,36.511,0,0,1,6.727-19.619l-.337-.227c-1.054,1.328-2.107,2.676-3.124,4.057a35.766,35.766,0,0,0-4.32,17.137,88.173,88.173,0,0,0-13.471,23.475,37.1,37.1,0,0,1,1.017-6.759l-.406-.1q-.79,2.492-1.465,5.031a39.994,39.994,0,0,0-.2,4.831A81.3,81.3,0,0,0,449.655,247a117.883,117.883,0,0,0-.885,14.187c0,2.381.09,4.741.232,7.1a46.1,46.1,0,0,0,7.518,17.912,78.9,78.9,0,0,0-.1,16.521c-.248-.585-.49-1.164-.711-1.754.227.622.485,1.228.716,1.844a.2.2,0,0,1,0,.053c.4,1.054.8,2.076,1.222,3.1h0c.785,1.9,1.607,3.767,2.487,5.605,5.695,8.361,14.308,16.031,25.43,22.458,1.222.706,2.471,1.38,3.735,2.049a46.183,46.183,0,0,0,6.585,16.505,75.163,75.163,0,0,1-13.408-9.946l-.348.369c1.7,1.733,3.424,3.424,5.226,5.052a84.588,84.588,0,0,0,8.956,5.974c.348.195.706.379,1.054.574a33.411,33.411,0,0,0,4.409,4.557q3.05,2,6.232,3.8l.279-.527a33.585,33.585,0,0,1-8.371-6.448,123.711,123.711,0,0,0,30.6,10.847,38.657,38.657,0,0,0,7.375,8.008c.432.111.869.2,1.307.306l.184-.258a35.686,35.686,0,0,1-7.528-7.781,164.632,164.632,0,0,0,33.464,3.508V378.2h1.027v-7.586a164.73,164.73,0,0,0,33.026-3.4,35.87,35.87,0,0,1-7.46,7.686l.248.337,1.085-.253a38.539,38.539,0,0,0,7.4-8.06,123.972,123.972,0,0,0,31.609-11.258,39.835,39.835,0,0,1-8.956,6.775l.284.527q3.387-1.928,6.648-4.067a43.308,43.308,0,0,0,4.863-4.773l.179-.095a83.668,83.668,0,0,0,9.009-6.016c1.781-1.612,3.5-3.293,5.184-5.01l-.353-.369A74.065,74.065,0,0,1,637,351.789a55.115,55.115,0,0,0,8.6-17.527l.432-.237c11.111-6.417,19.6-13.866,25.287-22.19.637-1.317,1.227-2.66,1.812-4l-.353-.205c-5.437,9.551-14.466,18.033-26.8,25.24a89.659,89.659,0,0,0,3-23.633c10.789-6.264,19.2-13.529,24.982-21.436a73.646,73.646,0,0,1-.474,18.138l.437.069c.248-.6.479-1.217.722-1.828a76.756,76.756,0,0,0,.105-17.522,46.348,46.348,0,0,0,7.834-18.333C682.735,265.944,682.83,263.579,682.83,261.187Zm-117.9-94.116c-9.767,11.253-19.139,29.054-27.01,51.154a85.87,85.87,0,0,1-16.474-6c12.644-19.7,27.742-36.124,43-45.133ZM527.261,177.7a128.745,128.745,0,0,0-24.76,19.387,25.7,25.7,0,0,1-4.8-12.844c18.365-10.858,40.749-17.443,64.983-17.97C551.094,166.881,539.209,170.685,527.261,177.7Zm35.086-10.494c-14.224,8.9-28.864,24.6-41.708,44.6-1.054-.527-2.144-1.054-3.161-1.649a46.855,46.855,0,0,1-14.467-12.322,128.422,128.422,0,0,1,24.7-19.355C539.409,171.612,551.036,167.872,562.347,167.208Zm-45.37,43.826c1.006.58,2.076,1.1,3.124,1.633-2.808,4.415-5.537,9.03-8.145,13.829a234.546,234.546,0,0,0-11.363,24.1c-1.354-.7-2.687-1.422-3.983-2.17-8.455-4.878-15.151-10.478-19.93-16.584a171.958,171.958,0,0,1,17.206-24.186q4.07-4.781,8.429-9.109a47.517,47.517,0,0,0,14.661,12.491ZM496.1,249.3c1.338.774,2.713,1.512,4.109,2.234a200.5,200.5,0,0,0-9.7,31.346q-2.134-1.112-4.183-2.3c-9.888-5.711-17.633-12.243-23.18-19.492a158.267,158.267,0,0,1,13.007-28.338c4.831,6.106,11.532,11.685,19.951,16.547Zm-10.3,32.136c1.454.843,2.95,1.654,4.467,2.439a135.76,135.76,0,0,0-3.119,26.683c-1.28-.68-2.555-1.37-3.8-2.107-11.416-6.6-20.135-14.308-25.888-22.7a116.463,116.463,0,0,1,5.268-23.5c5.6,7.154,13.318,13.576,23.069,19.2Zm5.389,2.9A141.04,141.04,0,0,0,520.539,295.1a271.043,271.043,0,0,0-1.5,27.437,144.661,144.661,0,0,1-30.893-11.458,134.03,134.03,0,0,1,3.045-26.736Zm.216-1.017a200.747,200.747,0,0,1,9.667-31.372,123.055,123.055,0,0,0,24.834,9.109,329.645,329.645,0,0,0-5.268,33.042,140.025,140.025,0,0,1-29.233-10.763Zm10.046-32.289a232.718,232.718,0,0,1,19.434-37.931,86.827,86.827,0,0,0,16.7,6.1q-2.418,6.849-4.641,14.224c-2.634,8.793-4.91,17.749-6.849,26.7A121.325,121.325,0,0,1,501.457,251.025Zm11.637-93.284a44.812,44.812,0,0,1,19.566-2.687c9.878.716,20.383,4.162,31.235,10.183-24.1.311-47,6.527-66.263,17.791v-.469c-.016-9.151,5.442-17.833,15.462-24.824Zm-16.368,27.078a26.867,26.867,0,0,0,5.026,13c-2.929,2.934-5.8,6.022-8.556,9.267a172.74,172.74,0,0,0-17.1,24,39.512,39.512,0,0,1-7.186-15.014,32.625,32.625,0,0,1-.785-6.511,107.175,107.175,0,0,1,28.6-24.745Zm-29.5,25.951a33.056,33.056,0,0,0,.738,5.526,40.623,40.623,0,0,0,7.586,15.762,159.439,159.439,0,0,0-13.039,28.227,51.245,51.245,0,0,1-3.567-5.437,40.65,40.65,0,0,1-5.358-18.923A86.68,86.68,0,0,1,467.2,210.765Zm-17.859,50.153a78.364,78.364,0,0,1,3.372-22.432,42.373,42.373,0,0,0,5.326,16.827A53.655,53.655,0,0,0,462.1,261.4a118.492,118.492,0,0,0-5.379,23.27A42.76,42.76,0,0,1,449.365,260.923Zm36.709,72.206c-13.423-7.744-23.143-17.306-28.39-27.684a74.425,74.425,0,0,1-.369-18.112c5.837,8.139,14.424,15.61,25.54,22.032,1.4.806,2.834,1.58,4.283,2.35a121.716,121.716,0,0,0,1.876,23.027C488.023,334.214,487.033,333.688,486.074,333.129Zm2.081-20.909a146.07,146.07,0,0,0,30.9,11.348,99.312,99.312,0,0,0,2.824,23.475,140.062,140.062,0,0,1-31.683-11.653A117.137,117.137,0,0,1,488.155,312.22Zm9.909,41.587c-3.5-4.462-5.974-10.062-7.6-17.153a142.187,142.187,0,0,0,31.7,11.479c.6,2.25,1.275,4.425,2.044,6.49a55.372,55.372,0,0,0,5.5,10.995A120.339,120.339,0,0,1,498.064,353.807Zm67.233,15.8a162.557,162.557,0,0,1-34.322-3.688,59.679,59.679,0,0,1-7.765-17.511,188.342,188.342,0,0,0,42.109,4.741Zm.021-17.438a187.345,187.345,0,0,1-42.4-4.884,96.7,96.7,0,0,1-2.929-23.48,194.026,194.026,0,0,0,45.333,5.347Zm0-24a192.763,192.763,0,0,1-45.354-5.4h0a265.988,265.988,0,0,1,1.5-27.395,187.183,187.183,0,0,0,43.852,5.163Zm0-28.617a186.256,186.256,0,0,1-43.728-5.205c1.187-10.952,2.978-22.078,5.27-33.036a163.188,163.188,0,0,0,38.458,4.62Zm0-34.612a161.411,161.411,0,0,1-38.247-4.61A333.389,333.389,0,0,1,538.5,219.415a113.56,113.56,0,0,0,26.815,3.261Zm0-43.252a112.384,112.384,0,0,1-26.451-3.24c7.486-21,16.632-38.958,26.451-50.4Zm99.1-10.921a86.7,86.7,0,0,1,13.618,25.14,40.649,40.649,0,0,1-5.326,18.865,52.4,52.4,0,0,1-3.825,5.795,159.508,159.508,0,0,0-13.007-28.306,40.655,40.655,0,0,0,7.844-16.179,33.379,33.379,0,0,0,.674-5.326Zm-35.444-13.487a128.794,128.794,0,0,0-24.992-19.6c-11.9-6.991-23.744-10.784-35.3-11.416,24.307.49,46.771,7.091,65.2,17.975A25.549,25.549,0,0,1,628.973,197.289Zm.195,1.449c2.8,2.824,5.542,5.795,8.187,8.9A172.2,172.2,0,0,1,654.74,232.08a68.712,68.712,0,0,1-19.492,16.184,203.181,203.181,0,0,0-20.888-37.093l.263-.137A48.237,48.237,0,0,0,629.168,198.738Zm-25.645-20.267a128.14,128.14,0,0,1,24.918,19.561,46.961,46.961,0,0,1-14.324,12.117c-.111.063-.232.116-.342.184-12.7-17.675-28.006-32.858-44.548-43.131C580.432,167.935,591.949,171.665,603.523,178.471Zm30.856,70.288a118.077,118.077,0,0,1-29.238,11.416c-1.918-8.982-4.214-17.97-6.849-26.8q-2.2-7.318-4.61-14.135a84.291,84.291,0,0,0,19.793-7.607A202.541,202.541,0,0,1,634.379,248.759Zm.39.932a176.488,176.488,0,0,1,10.01,31.167A135.74,135.74,0,0,1,610.6,294.187a331.5,331.5,0,0,0-5.268-33.037A118.939,118.939,0,0,0,634.768,249.692Zm.875-.485a70.153,70.153,0,0,0,19.613-16.189,158.347,158.347,0,0,1,12.965,28.448c-5.447,6.991-12.986,13.323-22.527,18.886A177.843,177.843,0,0,0,635.643,249.207Zm27.811-39.659a32.659,32.659,0,0,1-.732,6.322,39.569,39.569,0,0,1-7.375,15.462,173.327,173.327,0,0,0-17.274-24.281c-2.692-3.161-5.484-6.185-8.34-9.056a27,27,0,0,0,5.173-13.17,107.233,107.233,0,0,1,28.548,24.724Zm-44.843-51.739c9.957,6.98,15.372,15.631,15.372,24.76v.464c-19.245-11.253-42.145-17.469-66.205-17.791C586.918,155,604.619,152.462,618.611,157.809ZM567.136,167.1c17,10.183,32.747,25.624,45.749,43.726a83.391,83.391,0,0,1-19.529,7.486c-7.9-22.126-17.269-39.98-27.047-51.233A7.26,7.26,0,0,1,567.136,167.1Zm-.832,1.37c9.678,11.479,18.723,29.286,26.136,50.048a112.681,112.681,0,0,1-26.136,3.161Zm0,54.2a114.054,114.054,0,0,0,26.473-3.2,332.822,332.822,0,0,1,11.437,40.934,162.064,162.064,0,0,1-37.931,4.525Zm0,43.252a163.571,163.571,0,0,0,38.121-4.541c2.3,10.953,4.093,22.079,5.268,33.026A186.246,186.246,0,0,1,566.3,299.55Zm0,34.617a187.222,187.222,0,0,0,43.5-5.136,265.842,265.842,0,0,1,1.491,27.337v.1a193.218,193.218,0,0,1-45,5.321Zm0,28.611a194.418,194.418,0,0,0,45.015-5.277,97.13,97.13,0,0,1-3,23.515,187.7,187.7,0,0,1-42.014,4.778Zm33.9,36.825a162.848,162.848,0,0,1-33.9,3.614V353.153A188.443,188.443,0,0,0,608,348.484,59.44,59.44,0,0,1,600.2,365.982Zm34.243-12.67a119.97,119.97,0,0,1-32.979,12.4,55.309,55.309,0,0,0,5.563-11.1c.759-2.033,1.422-4.183,2.018-6.39a139.562,139.562,0,0,0,35.3-13.3,51.486,51.486,0,0,1-9.894,18.391Zm10.294-19.75a137.183,137.183,0,0,1-35.4,13.56,99.249,99.249,0,0,0,2.845-23.475,142.011,142.011,0,0,0,35.781-13.861,87.209,87.209,0,0,1-3.224,23.775ZM612.2,322.614a269.484,269.484,0,0,0-1.486-27.431A136.818,136.818,0,0,0,645,281.886a132.239,132.239,0,0,1,2.977,26.747A140.559,140.559,0,0,1,612.2,322.614Zm36.772-14.572a133.51,133.51,0,0,0-3.056-26.668c9.546-5.526,17.143-11.817,22.69-18.771a115.561,115.561,0,0,1,5.231,23.633C668.2,294.271,659.824,301.668,648.977,308.042Zm25.614-22.959a118.253,118.253,0,0,0-5.337-23.349,53.329,53.329,0,0,0,4.309-6.5,42.172,42.172,0,0,0,5.268-16.774,78.213,78.213,0,0,1,3.4,22.569A42.731,42.731,0,0,1,674.591,285.083Z" transform="translate(-212.35 -68.22)" fill="url(#radial-gradient-3)"/>
        <path id="Caminho_66" data-name="Caminho 66" d="M993.861,413.294a9.091,9.091,0,0,1,.69-3.688c-3.466-.379-5.911,2.107-5.911,6.706,0,6.022,4.215,13.35,9.446,16.363,3.967,2.286,7.375,1.417,8.756-1.77a9.209,9.209,0,0,1-3.54-1.243C998.086,426.654,993.861,419.321,993.861,413.294Z" transform="translate(-467.807 -193.802)" fill="url(#linear-gradient-9)"/>
        <path id="Caminho_67" data-name="Caminho 67" d="M1013.227,395.6c-7.818-13.545-20.493-20.873-28.322-16.331l-5.216,3.013c7.823-4.52,20.5,2.808,28.322,16.331s7.818,28.164,0,32.689l5.2-3C1021.05,423.8,1021.05,409.147,1013.227,395.6Z" transform="translate(-463.572 -178.829)" fill="url(#linear-gradient-10)"/>
        <path id="Caminho_68" data-name="Caminho 68" d="M1002.742,401.323c-7.818-13.544-20.5-20.873-28.322-16.331s-7.823,19.155,0,32.7l14.161,24.529,14.161-8.176C1010.56,429.507,1010.56,414.867,1002.742,401.323Zm-14.161,19.087c-5.215-3.013-9.446-10.341-9.446-16.363s4.215-8.471,9.446-5.458,9.446,10.336,9.446,16.363-4.225,8.466-9.446,5.458Z" transform="translate(-458.301 -181.536)" fill="#e13d5c"/>
        <path id="Caminho_69" data-name="Caminho 69" d="M1059.555,488.777c-6.353-.99-12.117-2.581-15.225-4.373-5.216-3.013-.985-5.453,9.451-5.453,1.87,0,3.814.079,5.795.227v-5.51c-17.322-1.665-32.963-.817-38.805,2.56L1006.61,484.4l42.483,8.176c3.472.669,6.986,1.233,10.484,1.707Z" transform="translate(-476.31 -223.741)" fill="url(#linear-gradient-11)"/>
        <path id="Caminho_70" data-name="Caminho 70" d="M836.771,616.654a9.139,9.139,0,0,1,.69-3.688c-3.466-.379-5.911,2.107-5.911,6.7,0,6.021,4.215,13.35,9.446,16.363,3.972,2.292,7.375,1.422,8.756-1.77a9.155,9.155,0,0,1-3.535-1.243C841,630.019,836.771,622.691,836.771,616.654Z" transform="translate(-393.475 -290.028)" fill="url(#linear-gradient-12)"/>
        <path id="Caminho_71" data-name="Caminho 71" d="M856.143,598.985c-7.823-13.539-20.5-20.867-28.322-16.331l-5.221,3.008c7.823-4.515,20.5,2.813,28.322,16.331s7.818,28.164,0,32.663l5.205-3C863.966,627.175,863.96,612.535,856.143,598.985Z" transform="translate(-389.24 -275.067)" fill="url(#linear-gradient-13)"/>
        <path id="Caminho_72" data-name="Caminho 72" d="M845.654,604.705c-7.818-13.539-20.5-20.867-28.322-16.331s-7.818,19.155,0,32.7L831.493,645.6l14.161-8.171C853.477,632.9,853.471,618.255,845.654,604.705Zm-14.161,19.087c-5.216-3.013-9.446-10.341-9.446-16.363s4.215-8.466,9.446-5.458,9.446,10.341,9.446,16.368S836.713,626.805,831.493,623.792Z" transform="translate(-383.971 -277.774)" fill="#e13d5c"/>
        <path id="Caminho_73" data-name="Caminho 73" d="M902.445,692.164c-6.353-1-12.117-2.581-15.225-4.378-5.21-3.008-.98-5.453,9.451-5.453,1.87,0,3.814.079,5.795.227v-5.505c-17.322-1.67-32.963-.816-38.805,2.555L849.5,687.787l42.483,8.176c3.472.669,6.991,1.238,10.484,1.707Z" transform="translate(-401.968 -319.98)" fill="url(#linear-gradient-14)"/>
        <path id="Caminho_74" data-name="Caminho 74" d="M461.361,611.083a9.141,9.141,0,0,1,.69-3.688c-3.461-.385-5.911,2.107-5.911,6.7,0,6.022,4.215,13.35,9.451,16.363,3.967,2.292,7.375,1.422,8.756-1.77a9.176,9.176,0,0,1-3.54-1.243C465.591,624.432,461.361,617.1,461.361,611.083Z" transform="translate(-215.837 -287.392)" fill="url(#linear-gradient-15)"/>
        <path id="Caminho_75" data-name="Caminho 75" d="M480.737,593.385c-7.818-13.539-20.5-20.867-28.322-16.331l-5.215,3.013c7.823-4.515,20.5,2.813,28.322,16.331s7.813,28.164,0,32.663l5.2-3C488.56,621.575,488.555,606.945,480.737,593.385Z" transform="translate(-211.607 -272.417)" fill="url(#linear-gradient-16)"/>
        <path id="Caminho_76" data-name="Caminho 76" d="M470.292,599.125c-7.823-13.539-20.5-20.867-28.322-16.331s-7.823,19.155,0,32.7l14.161,24.523,14.161-8.2C478.089,627.3,478.083,612.664,470.292,599.125Zm-14.161,19.087c-5.221-3.013-9.451-10.341-9.451-16.363s4.215-8.471,9.451-5.458,9.42,10.331,9.42,16.358-4.215,8.466-9.441,5.453Z" transform="translate(-206.356 -275.133)" fill="#e13d5c"/>
        <path id="Caminho_77" data-name="Caminho 77" d="M527.065,686.553c-6.348-.99-12.117-2.576-15.22-4.373-5.216-3.013-.985-5.453,9.446-5.453,1.87,0,3.814.079,5.8.227v-5.505c-17.343-1.686-33.005-.817-38.8,2.555L474.13,682.18l42.477,8.176c3.477.669,6.991,1.238,10.484,1.707Z" transform="translate(-224.35 -317.324)" fill="url(#linear-gradient-17)"/>
        <path id="Caminho_78" data-name="Caminho 78" d="M187.8,561.79H154.56l3.235,8.982h30Z" transform="translate(-73.135 -265.831)" fill="url(#linear-gradient-18)"/>
        <path id="Caminho_79" data-name="Caminho 79" d="M218.761,544.37h-34.1l4.1,8.982h30Z" transform="translate(-87.378 -257.588)" fill="url(#linear-gradient-19)"/>
        <path id="Caminho_80" data-name="Caminho 80" d="M139.769,554.5c-2.36,0-3.63,3.6-2.861,6.116a9.158,9.158,0,0,0,2.265,1.96s6.78,4.162,8.392,4.562,5.342.379,6.09-2.371c0-1.744-1.27-2.987-2.855-4.32-2.076-1.738-3.8-3.488-5.505-4.7C143.9,554.763,139.769,554.5,139.769,554.5Z" transform="translate(-64.676 -262.381)" fill="url(#linear-gradient-20)"/>
        <path id="Caminho_81" data-name="Caminho 81" d="M147.68,571.1c-1.659-.406-8.635-4.694-8.635-4.694a9.692,9.692,0,0,1-2.265-1.933,5.235,5.235,0,0,0,.174.864,9.158,9.158,0,0,0,2.265,1.96s6.78,4.162,8.392,4.562,5.342.379,6.09-2.371v-.174C152.542,571.482,149.2,571.471,147.68,571.1Z" transform="translate(-64.722 -267.099)" fill="#1e1c6b"/>
        <path id="Caminho_82" data-name="Caminho 82" d="M146.761,551.36a41.164,41.164,0,0,0-5.2,1.027,2.26,2.26,0,0,1-.358,1.054l-.116.137c-.8.558-1.717,1.623.284,2.634,3.877,1.949,7.813-.227,6.353-1.412C146.74,553.994,146.761,552.25,146.761,551.36Z" transform="translate(-66.321 -260.895)" fill="#fdcea2"/>
        <path id="Caminho_83" data-name="Caminho 83" d="M151.971,557.935a1.406,1.406,0,0,0-2.107-.827,3.15,3.15,0,0,0-1.933,2.745c0,.959,2.8.706,2.929.579S151.971,557.935,151.971,557.935Z" transform="translate(-69.998 -263.509)" fill="#4241a8"/>
        <path id="Caminho_84" data-name="Caminho 84" d="M150.638,562.671a.52.52,0,0,1-.432-.822,6.775,6.775,0,0,1,3.572-2.492.541.541,0,1,1,.248,1.054,5.759,5.759,0,0,0-2.95,2.06A.527.527,0,0,1,150.638,562.671Z" transform="translate(-71.03 -264.672)" fill="#fff"/>
        <path id="Caminho_85" data-name="Caminho 85" d="M154.529,566.117a.53.53,0,0,1-.432-.827,6.8,6.8,0,0,1,3.572-2.481.527.527,0,1,1,.248,1.022,5.847,5.847,0,0,0-2.95,2.06A.527.527,0,0,1,154.529,566.117Z" transform="translate(-72.872 -266.301)" fill="#fff"/>
        <path id="Caminho_86" data-name="Caminho 86" d="M171.039,537.1c-2.36,0-3.63,3.6-2.861,6.111a9.039,9.039,0,0,0,2.265,1.96s6.78,4.167,8.392,4.562,5.342.379,6.09-2.365c0-1.749-1.27-2.992-2.855-4.32-2.076-1.738-3.8-3.493-5.505-4.7C175.169,537.353,171.039,537.1,171.039,537.1Z" transform="translate(-79.473 -254.148)" fill="url(#linear-gradient-21)"/>
        <path id="Caminho_87" data-name="Caminho 87" d="M178.95,553.7c-1.659-.411-8.635-4.694-8.635-4.694a9.837,9.837,0,0,1-2.265-1.933,5.06,5.06,0,0,0,.174.859,9.038,9.038,0,0,0,2.265,1.96s6.78,4.167,8.392,4.562,5.342.379,6.09-2.365v-.174C183.828,554.082,180.472,554.071,178.95,553.7Z" transform="translate(-79.518 -258.865)" fill="#1e1c6b"/>
        <path id="Caminho_88" data-name="Caminho 88" d="M178.071,534a40.258,40.258,0,0,0-5.2,1.054,2.276,2.276,0,0,1-.358,1.054l-.116.137c-.8.558-1.717,1.623.284,2.634,3.877,1.949,7.813-.227,6.353-1.412C178.029,536.634,178.071,534.869,178.071,534Z" transform="translate(-81.137 -252.681)" fill="#fdcea2"/>
        <path id="Caminho_89" data-name="Caminho 89" d="M183.217,540.528a1.42,1.42,0,0,0-2.134-.822,3.108,3.108,0,0,0-1.933,2.74c0,.954,2.808.711,2.929.585S183.217,540.528,183.217,540.528Z" transform="translate(-84.771 -255.273)" fill="#4241a8"/>
        <path id="Caminho_90" data-name="Caminho 90" d="M181.909,545.262a.523.523,0,0,1-.432-.822,6.744,6.744,0,0,1,3.572-2.492.527.527,0,1,1,.248,1.022,5.8,5.8,0,0,0-2.95,2.065A.526.526,0,0,1,181.909,545.262Z" transform="translate(-85.828 -256.431)" fill="#fff"/>
        <path id="Caminho_91" data-name="Caminho 91" d="M185.769,548.713a.53.53,0,0,1-.432-.827,6.791,6.791,0,0,1,3.572-2.487.527.527,0,1,1,.248,1.022,5.832,5.832,0,0,0-2.95,2.065A.527.527,0,0,1,185.769,548.713Z" transform="translate(-87.655 -258.063)" fill="#fff"/>
        <path id="Caminho_92" data-name="Caminho 92" d="M164.7,447.563c.1-9.267-1.544-27.858-2.634-39.453-3.066,1.486-24.286,3.161-27.726,4.452-1.549,14.182-.195,29.881,1.5,43.726-1.58,9.319.711,16.858,1.612,27.505.527,2.871,4.441,3.688,6.907,1.58.527-8.129,1.154-15.488,1.775-26.91.969-8.845,3.609-17.833,4.789-25.119.659,3.688,2.423,9.272,3.066,15.23-.643,9.093-1.749,15.346-.527,27.184,1.1,2.7,5.094,2.676,7.08.126C161.365,466.529,164.615,455.308,164.7,447.563Z" transform="translate(-63.245 -193.112)" fill="url(#linear-gradient-22)"/>
        <path id="Caminho_93" data-name="Caminho 93" d="M168.975,463.007h0c-.8-4.61-2.028-8.793-2.555-11.732.327-2.107.753-5.194.753-5.194C167.906,449.378,169.723,461.21,168.975,463.007Z" transform="translate(-78.747 -211.079)" fill="#cfd5f1"/>
        <path id="Caminho_94" data-name="Caminho 94" d="M193.778,386.36c1.686,3.161-.284,5.147-2.834,4.889-1.454-.142.205-4.046.205-4.046Z" transform="translate(-90.069 -182.82)" fill="#facfa7"/>
        <path id="Caminho_95" data-name="Caminho 95" d="M174,322.49c6.722,1.965,12.317,11.527,14.029,20.219,1.159,5.89.727,13.523-3.819,15.778C176.534,353.7,174,322.49,174,322.49Z" transform="translate(-82.334 -152.598)" fill="#e19100"/>
        <path id="Caminho_96" data-name="Caminho 96" d="M135.135,328.59c2.634-3.272,9.035-7.839,13.244-8.15,7.154-.527,12.823,5.389,14.282,10.326,1.375,4.652.353,30.65-.6,38.558-.759,3.335-4.13,4.831-6.459,5.321-10.168,2.107-21.979,1.391-22.406-4.578C132.321,358.039,131.357,332.362,135.135,328.59Z" transform="translate(-62.65 -151.613)" fill="url(#linear-gradient-23)"/>
        <path id="Caminho_97" data-name="Caminho 97" d="M139.149,332.918c-2.25-.464-5.268-.216-6.7,6.6-1.249,6.048-.263,25.166,3.962,29.407,3.387,3.409,15.694,1.775,26.7-2.755,1.106-1.486,1.628-3.714,0-4.91-7.549-.237-14.751.922-20.625.385-.437-4.915.174-16.126.316-19.777C143.037,336.463,141.372,333.371,139.149,332.918Z" transform="translate(-62.434 -157.463)" fill="url(#linear-gradient-24)"/>
        <path id="Caminho_98" data-name="Caminho 98" d="M176.474,332.77c.137,9.483,1.807,27.858,7,30.413a1.928,1.928,0,0,1-1.644.911C175.768,363.352,175.705,342.9,176.474,332.77Z" transform="translate(-83.343 -157.462)" fill="url(#linear-gradient-25)"/>
        <path id="Caminho_99" data-name="Caminho 99" d="M156.713,301.884c-.263-2.318,7.749,2.4,7.428,5.468-.263,2.487-.99,4.678,1.533,6.237.864.7,3.835,5.537-.732,5.59-6.538.079-8.282-1.717-13-5.763C154.769,311.825,157.572,309.4,156.713,301.884Z" transform="translate(-71.895 -142.555)" fill="#facfa7"/>
        <path id="Caminho_100" data-name="Caminho 100" d="M157.44,295.728l3.25-4.578h14.171v8.524c0,4.715-3.161,8.529-7.08,8.529a7.755,7.755,0,0,1-7.512-7.655l-1.717-.6Z" transform="translate(-74.498 -137.769)" fill="#facfa7"/>
        <path id="Caminho_101" data-name="Caminho 101" d="M169.967,318.926c-3.387,0-7.576-5.437-7.181-9.936a8.176,8.176,0,0,0,7.228,7.649,5.957,5.957,0,0,0,.79.606,2.52,2.52,0,0,1,.232.237C171.037,318.172,170.584,318.926,169.967,318.926Z" transform="translate(-77.015 -146.21)" fill="#f0c19b"/>
        <path id="Caminho_102" data-name="Caminho 102" d="M172.359,279.835c1.3-.227,1.412-1.306-3.84-3.119-3.05-1.5-7.375-1.96-10.173-.227-3.8,2.35-4.942,5.795-4.262,10.131a24.109,24.109,0,0,0,3.456,8.429c.421.421.479-1.58.142-3.055a2.724,2.724,0,0,1-.5-1.264c-1.006-4.4,1.686-3.746,2.055-3.372.832.342-.774,3.983,1.659,3.619,1.18-.174,1.017-3.461,1.011-4.62a4.463,4.463,0,0,1,.527.142c2.007,1.117,8.84,1.928,5.047-.448,2.634,0,6.243,1.222,7.46-.453C176.395,283.607,174.082,281.453,172.359,279.835Z" transform="translate(-72.822 -130.305)" fill="#20196f"/>
        <path id="Caminho_103" data-name="Caminho 103" d="M175.753,323.889a5.105,5.105,0,0,1,.163-2.365,14.143,14.143,0,0,1,.153-1.549c.469-1.544,1.349-3.071,1.285-3.393-2.566,1.054-2.107,3.688-5.31,2.276-3.63-1.58-6.322-3.345-6.58-2.776-.121.263,1.428,1.528,2.718,2.876.453.474.738,2.892,1.18,3.393,1.017,1.148,2.044.9,2.4,2.634C173.277,325.7,175.753,323.889,175.753,323.889Z" transform="translate(-78.291 -149.514)" fill="#fdddc3"/>
        <path id="Caminho_104" data-name="Caminho 104" d="M184.94,362.055c2.792.09,4.852-9.43,1.38-20.14-1.533-4.741-4.789-12.175-4.789-12.175a26.585,26.585,0,0,0-4.741,1.58C176.932,341.467,178.834,361.855,184.94,362.055Z" transform="translate(-83.654 -156.029)" fill="url(#linear-gradient-26)"/>
        <path id="Caminho_105" data-name="Caminho 105" d="M1102.3,333.82H1076.34l18.233,10.526-18.233,10.526H1102.3l18.228-10.526Z" transform="translate(-509.305 -157.959)" fill="url(#linear-gradient-27)"/>
        <path id="Caminho_106" data-name="Caminho 106" d="M1076.34,350.149l18.233-10.526V323.84l-18.233,10.521Z" transform="translate(-509.305 -153.237)" fill="#a1a7ce"/>
        <path id="Caminho_107" data-name="Caminho 107" d="M1059.968,324.911l-18.228-10.521,18.228-10.521,18.233,10.521Z" transform="translate(-492.933 -143.787)" fill="#efeff4"/>
        <path id="Caminho_108" data-name="Caminho 108" d="M1068.154,321.911l-9.114-13.861,18.228-10.521,9.119,13.861Z" transform="translate(-501.119 -140.787)" fill="#b9bee4"/>
        <path id="Caminho_109" data-name="Caminho 109" d="M1050.854,308.056l-9.114,3.335,18.228-10.521,9.114-3.34Z" transform="translate(-492.933 -140.787)" fill="#f4f4f9"/>
        <path id="Caminho_110" data-name="Caminho 110" d="M1050.854,317.5l-9.114,3.34v15.783l18.228,10.526V331.361Z" transform="translate(-492.933 -150.237)" fill="#ccd1f6"/>
        <rect id="Retângulo_5" data-name="Retângulo 5" width="32.015" height="2.418" transform="translate(488.555 298.509)" fill="url(#linear-gradient-28)"/>
        <path id="Caminho_111" data-name="Caminho 111" d="M925.648,550.817l-1.918-1.106V528.09l1.918,1.1Z" transform="translate(-437.092 -249.884)" fill="#20196f"/>
        <path id="Caminho_112" data-name="Caminho 112" d="M927.37,550.817l1.923-1.106V528.09l-1.923,1.1Z" transform="translate(-438.815 -249.884)" fill="#110f42"/>
        <path id="Caminho_113" data-name="Caminho 113" d="M927.915,490.277,906.81,459s-21.426,31.762-21.568,31.994a8.4,8.4,0,0,0-1.322,4.425c0,3.388,2.239,6.764,6.706,9.346,8.956,5.163,23.433,5.163,32.373,0,4.467-2.581,6.7-5.958,6.7-9.346a8.65,8.65,0,0,0-1.786-5.142Z" transform="translate(-418.255 -217.192)" fill="url(#linear-gradient-29)"/>
        <path id="Caminho_114" data-name="Caminho 114" d="M927.834,469.687l-18.5-27.437-18.5,27.437a7.591,7.591,0,0,0-1.58,4.483c0,2.966,1.954,5.927,5.874,8.187,7.834,4.525,20.546,4.525,28.369,0,3.914-2.26,5.874-5.221,5.874-8.187a7.565,7.565,0,0,0-1.544-4.483Z" transform="translate(-420.782 -209.266)" fill="url(#linear-gradient-30)"/>
        <path id="Caminho_115" data-name="Caminho 115" d="M928.118,452.984c-.105-.174-16.142-23.944-16.142-23.944s-16.036,23.77-16.142,23.944a6.279,6.279,0,0,0-.985,3.314c0,2.529,1.67,5.063,5.015,6.991,6.691,3.862,17.538,3.862,24.233,0,3.34-1.928,5.015-4.462,5.015-6.991A6.29,6.29,0,0,0,928.118,452.984Z" transform="translate(-423.427 -203.016)" fill="url(#linear-gradient-31)"/>
        <rect id="Retângulo_6" data-name="Retângulo 6" width="32.015" height="2.418" transform="translate(302.61 412.486)" fill="url(#linear-gradient-28)"/>
        <path id="Caminho_116" data-name="Caminho 116" d="M572.688,767.162l-1.918-1.106V744.43l1.918,1.106Z" transform="translate(-270.078 -352.253)" fill="#20196f"/>
        <path id="Caminho_117" data-name="Caminho 117" d="M574.41,767.162l1.918-1.106V744.43l-1.918,1.106Z" transform="translate(-271.8 -352.253)" fill="#110f42"/>
        <path id="Caminho_118" data-name="Caminho 118" d="M574.955,706.6l-21.1-31.3s-21.426,31.762-21.568,31.978a8.4,8.4,0,0,0-1.322,4.425c0,3.388,2.239,6.764,6.706,9.346,8.956,5.163,23.433,5.163,32.368,0,4.473-2.581,6.706-5.958,6.706-9.346a8.65,8.65,0,0,0-1.786-5.1Z" transform="translate(-251.241 -319.541)" fill="url(#linear-gradient-33)"/>
        <path id="Caminho_119" data-name="Caminho 119" d="M574.874,686.037l-18.5-27.437-18.5,27.437a7.6,7.6,0,0,0-1.58,4.483c0,2.966,1.96,5.927,5.879,8.187,7.834,4.525,20.546,4.525,28.369,0,3.914-2.26,5.874-5.221,5.874-8.187A7.6,7.6,0,0,0,574.874,686.037Z" transform="translate(-253.767 -311.639)" fill="url(#linear-gradient-34)"/>
        <path id="Caminho_120" data-name="Caminho 120" d="M575.169,669.334c-.105-.174-16.142-23.944-16.142-23.944s-16.021,23.77-16.142,23.944a6.279,6.279,0,0,0-.985,3.314c0,2.529,1.67,5.063,5.015,6.991,6.691,3.862,17.538,3.862,24.234,0,3.345-1.928,5.02-4.462,5.02-6.991A6.29,6.29,0,0,0,575.169,669.334Z" transform="translate(-256.417 -305.389)" fill="url(#linear-gradient-35)"/>
        <path id="Caminho_121" data-name="Caminho 121" d="M842.791,733.99h0l-33.853-19.545-40.628-.005,33.853,19.55L768.31,753.535h40.628l33.853-19.545Z" transform="translate(-363.55 -338.062)" fill="url(#linear-gradient-36)"/>
        <path id="Caminho_122" data-name="Caminho 122" d="M737.9,750.024,704.04,730.479V707.02L737.9,726.57Z" transform="translate(-333.139 -334.551)" fill="#ccd1f6"/>
        <path id="Caminho_123" data-name="Caminho 123" d="M802.169,730.479,768.31,750.024V726.57l33.859-19.55Z" transform="translate(-363.55 -334.551)" fill="#b9bee4"/>
        <path id="Caminho_124" data-name="Caminho 124" d="M771.757,689.465,737.9,669.92,704.04,689.465l33.859,19.55Z" transform="translate(-333.139 -316.996)" fill="#f4f4f9"/>
        <g id="Grupo_7" data-name="Grupo 7" transform="translate(374.91 381.409)">
          <path id="Caminho_125" data-name="Caminho 125" d="M779.866,765.29,776.9,767V750.2l2.966-1.712Z" transform="translate(-742.525 -735.583)" fill="#d6dcf1"/>
          <path id="Caminho_126" data-name="Caminho 126" d="M794.011,757.12l-2.971,1.712v-16.8l2.971-1.712Z" transform="translate(-749.216 -731.717)" fill="#d6dcf1"/>
          <path id="Caminho_127" data-name="Caminho 127" d="M808.156,748.95l-2.966,1.718V733.862l2.966-1.712Z" transform="translate(-755.911 -727.851)" fill="#d6dcf1"/>
          <path id="Caminho_128" data-name="Caminho 128" d="M822.306,740.785,819.34,742.5V725.7l2.966-1.712Z" transform="translate(-762.607 -723.99)" fill="#d6dcf1"/>
          <path id="Caminho_129" data-name="Caminho 129" d="M754.09,765.29,757.056,767V750.2l-2.966-1.712Z" transform="translate(-731.732 -735.583)" fill="#d6dcf1"/>
          <path id="Caminho_130" data-name="Caminho 130" d="M739.94,757.12l2.966,1.712v-16.8l-2.966-1.712Z" transform="translate(-725.036 -731.717)" fill="#d6dcf1"/>
          <path id="Caminho_131" data-name="Caminho 131" d="M725.79,748.95l2.971,1.718V733.862l-2.971-1.712Z" transform="translate(-718.341 -727.851)" fill="#d6dcf1"/>
          <path id="Caminho_132" data-name="Caminho 132" d="M711.65,740.785l2.966,1.717V725.7l-2.966-1.712Z" transform="translate(-711.65 -723.99)" fill="#d6dcf1"/>
        </g>
        <path id="Caminho_133" data-name="Caminho 133" d="M938.185,788.5H901.16l15.1,8.719-15.1,8.714h37.025l15.093-8.714Z" transform="translate(-426.413 -373.106)" fill="url(#linear-gradient-37)"/>
        <path id="Caminho_134" data-name="Caminho 134" d="M887.594,785.765l-15.1-8.714V745.88l15.1,8.719Z" transform="translate(-412.846 -352.939)" fill="#ccd1f6"/>
        <path id="Caminho_135" data-name="Caminho 135" d="M916.259,777.052l-15.1,8.714V754.6l15.1-8.719Z" transform="translate(-426.413 -352.939)" fill="#b9bee4"/>
        <path id="Caminho_136" data-name="Caminho 136" d="M887.594,746.768l-15.1-8.719,15.1-8.719,15.1,8.719Z" transform="translate(-412.846 -345.107)" fill="#f4f4f9"/>
        <path id="Caminho_137" data-name="Caminho 137" d="M417.12,724.36H380.1l15.1,8.724L380.1,741.8h37.02l15.1-8.714Z" transform="translate(-179.856 -342.756)" fill="url(#linear-gradient-38)"/>
        <path id="Caminho_138" data-name="Caminho 138" d="M366.534,726.755l-15.1-8.719V692.57l15.1,8.719Z" transform="translate(-166.29 -327.713)" fill="#ccd1f6"/>
        <path id="Caminho_139" data-name="Caminho 139" d="M395.2,718.036l-15.1,8.719V701.289l15.1-8.719Z" transform="translate(-179.856 -327.713)" fill="#b9bee4"/>
        <path id="Caminho_140" data-name="Caminho 140" d="M366.534,693.458l-15.1-8.719,15.1-8.719,15.1,8.719Z" transform="translate(-166.29 -319.882)" fill="#f4f4f9"/>
        <path id="Caminho_141" data-name="Caminho 141" d="M360.653,473.16H343.4l34.507,19.924L343.4,513.008h17.253l34.507-19.924Z" transform="translate(-162.491 -223.892)" fill="url(#linear-gradient-39)"/>
        <path id="Caminho_142" data-name="Caminho 142" d="M320.153,526.433,294.27,511.492V501.53l25.883,14.941Z" transform="translate(-139.243 -237.317)" fill="#ccd1f6"/>
        <path id="Caminho_143" data-name="Caminho 143" d="M377.907,502.032,343.4,521.956v-9.962l34.507-19.924Z" transform="translate(-162.491 -232.84)" fill="#b9bee4"/>
        <path id="Caminho_144" data-name="Caminho 144" d="M328.777,463.71l25.883,14.941-34.507,19.924L294.27,483.634Z" transform="translate(-139.243 -219.421)" fill="#f4f4f9"/>
        <path id="Caminho_145" data-name="Caminho 145" d="M718.4,3.31l-5.516,3.161C709.67,8.352,705.234-1.795,701.63.286L691.974,5.86c-7.207,4.151-4.6-7.965-15.378-1.728-12.644,7.307-11.622,21.979-18.823,26.141l-9.662,5.553c-3.6,2.081-4.583,10.689-7.8,12.549l-5.516,3.161c-1.2.69-3.488,2.608-3.493,5.115L676.606,30.5,721.913,4.348C721.892,1.882,719.595,2.636,718.4,3.31Z" transform="translate(-298.72 -0.003)" fill="#e6ebf7"/>
      </g>
    </g>
  </g>
</svg>
